<svg xmlns="http://www.w3.org/2000/svg" width="48" height="32" viewBox="0 0 48 32">
  <circle
    mask="url(#question-circle-mask)"
    fill="transparent"
    stroke="currentColor"
    stroke-width="1.7"
    cx="16"
    cy="16"
    r="15"
  />
  <mask id="question-circle-mask">
    <rect x="0" y="0" width="48" height="32" fill="white" />
    <path fill="black" d="M 8,8 L 1,31 L 24,24 Z" />
    <circle fill="black" cx="35" cy="19" r="12" />
  </mask>
  <path
    mask="url(#question-tip-mask)"
    fill="transparent"
    stroke="currentColor"
    stroke-width="1.7"
    stroke-linejoin="round"
    d="M 8,8 L 1,31 L 24,24 Z"
  />
  <mask id="question-tip-mask">
    <rect x="0" y="0" width="48" height="32" fill="white" />
    <circle cx="16" cy="16" r="14.15" fill="black" />
  </mask>
  <path
    fill="transparent"
    stroke="currentColor"
    stroke-width="1.7"
    stroke-linecap="round"
    transform="translate(-4 -4)"
    d="M 16,16 c 0,-1 1,-3 4,-3 c 4,0 5,3 4,5 s -4,3 -4,5"
  />
  <circle fill="currentColor" stroke="transparent" cx="16" cy="23.5" r="1.5" />
  <circle
    mask="url(#answer-circle-mask)"
    fill="transparent"
    stroke="currentColor"
    stroke-width="1.7"
    cx="35"
    cy="19"
    r="12"
  />
  <mask id="answer-circle-mask">
    <rect x="0" y="0" width="48" height="32" fill="white" />
    <path fill="black" d="M 42,12 L 47,31 L 28,26 Z" />
  </mask>
  <path
    mask="url(#answer-tip-mask)"
    fill="transparent"
    stroke="currentColor"
    stroke-width="1.7"
    stroke-linejoin="round"
    d="M 42,12 L 47,31 L 28,26 Z"
  />
  <mask id="answer-tip-mask">
    <rect x="0" y="0" width="48" height="32" fill="white" />
    <circle cx="35" cy="19" r="11.15" fill="black" />
  </mask>
  <circle fill="currentColor" stroke="transparent" cx="30.2" cy="19" r="1.5" />
  <circle fill="currentColor" stroke="transparent" cx="35" cy="19" r="1.5" />
  <circle fill="currentColor" stroke="transparent" cx="39.8" cy="19" r="1.5" />
</svg>
