<svg xmlns="http://www.w3.org/2000/svg" viewBox="0 0 24 14"><circle cx="8" cy="7" r="6" fill="transparent" stroke="currentColor" mask="url(#question-circle-mask)"></circle><mask id="question-circle-mask"><rect x="0" y="0" width="24" height="24" fill="white"></rect><path fill="black" d="M 4,5 L 1,13 L 10,11 Z"></path><circle fill="black" cx="17" cy="8" r="5"></circle></mask><path fill="transparent" stroke="currentColor" stroke-linejoin="round" d="M 4,5 L 1,13 L 10,11 Z" mask="url(#question-tip-mask)"></path><mask id="question-tip-mask"><rect x="0" y="0" width="24" height="24" fill="white"></rect><circle cx="8" cy="7" r="5.5" fill="black"></circle></mask><path d="M 8,7 c -0.5 -1.5 0 -3 2 -3 s 3 1 3 3 s -3 2 -3 4" stroke="currentColor" fill="transparent" stroke-linecap="round" style="transform: translate(0.9px, 0.5px) scale(0.7);" stroke-width="1.5"></path><circle cx="8" cy="10" stroke="transparent" fill="currentColor" r="0.8"></circle><circle cx="17" cy="8" r="5" fill="transparent" stroke="currentColor" mask="url(#answer-circle-mask)"></circle><mask id="answer-circle-mask"><rect x="0" y="0" width="24" height="24" fill="white"></rect><path stroke-width="0.1" fill="black" d="M 20,6 L 23,13 L 15,11 Z"></path></mask><path fill="transparent" stroke="currentColor" stroke-linejoin="round" d="M 20,6 L 23,13 L 15,11 Z" mask="url(#answer-tip-mask)"></path><mask id="answer-tip-mask"><rect x="0" y="0" width="24" height="24" fill="white"></rect><circle cx="17" cy="8" r="4.5" fill="black"></circle></mask><circle cx="14.5" cy="8" r="0.8" stroke="transparent" fill="currentColor"></circle><circle cx="17" cy="8" r="0.8" stroke="transparent" fill="currentColor"></circle><circle cx="19.5" cy="8" r="0.8" stroke="transparent" fill="currentColor"></circle></svg>
